<?xml version="1.0" encoding="utf-8"?>
<!-- Generator: Adobe Illustrator 16.0.0, SVG Export Plug-In . SVG Version: 6.00 Build 0)  -->
<!DOCTYPE svg PUBLIC "-//W3C//DTD SVG 1.1//EN" "http://www.w3.org/Graphics/SVG/1.1/DTD/svg11.dtd">
<svg version="1.1" id="Capa_1" xmlns="http://www.w3.org/2000/svg" xmlns:xlink="http://www.w3.org/1999/xlink" x="0px" y="0px"
	 width="60px" height="60px" viewBox="5.5 34.5 60 60" enable-background="new 5.5 34.5 60 60" xml:space="preserve">
<g>
	<path d="M60.5,64.5c0-13.807-11.193-25-25-25s-25,11.193-25,25s11.193,25,25,25S60.5,78.307,60.5,64.5z M12.773,64.5
		c0-12.552,10.174-22.729,22.729-22.729c12.553,0,22.727,10.176,22.727,22.729S48.055,87.227,35.502,87.227
		C22.947,87.227,12.773,77.053,12.773,64.5z"/>
	<path d="M36.459,78.93V64.5h4.762l0.752-4.782h-5.514V57.32c0-1.248,0.408-2.438,2.199-2.438h3.58v-4.772h-5.082
		c-4.271,0-5.438,2.813-5.438,6.714v2.893h-2.933V64.5h2.933v14.43H36.459L36.459,78.93z"/>
</g>
</svg>
