<?xml version="1.0" encoding="utf-8"?>
<!-- Generator: Adobe Illustrator 16.0.0, SVG Export Plug-In . SVG Version: 6.00 Build 0)  -->
<!DOCTYPE svg PUBLIC "-//W3C//DTD SVG 1.1//EN" "http://www.w3.org/Graphics/SVG/1.1/DTD/svg11.dtd">
<svg version="1.1" id="Capa_1" xmlns="http://www.w3.org/2000/svg" xmlns:xlink="http://www.w3.org/1999/xlink" x="0px" y="0px"
	 width="60px" height="60px" viewBox="5.5 34.5 60 60" enable-background="new 5.5 34.5 60 60" xml:space="preserve">
<g>
	<g>
		<path fill="#FFFFFF" d="M46.221,59.53c0-0.253-0.004-0.503-0.018-0.75c1.08-0.806,2.018-1.812,2.758-2.964
			c-0.99,0.444-2.055,0.742-3.172,0.867c1.141-0.701,2.016-1.824,2.43-3.173c-1.068,0.648-2.25,1.111-3.508,1.354
			c-1.008-1.146-2.441-1.875-4.031-1.902c-3.049-0.05-5.521,2.527-5.521,5.757c0,0.459,0.047,0.904,0.143,1.334
			c-4.593-0.295-8.662-2.687-11.387-6.291c-0.475,0.864-0.747,1.873-0.747,2.955c0,2.045,0.976,3.864,2.457,4.938
			c-0.907-0.041-1.757-0.316-2.503-0.766c0,0.024,0,0.049,0,0.074c0,2.859,1.904,5.254,4.432,5.814
			c-0.463,0.131-0.951,0.199-1.453,0.197c-0.356-0.002-0.703-0.041-1.039-0.113c0.703,2.343,2.742,4.055,5.158,4.111
			c-1.891,1.567-4.271,2.504-6.857,2.498c-0.446,0-0.887-0.031-1.318-0.085c2.445,1.677,5.348,2.654,8.469,2.654
			C40.666,76.041,46.221,67.2,46.221,59.53z"/>
		<path fill="#FFFFFF" d="M60.5,64.5c0-13.807-11.193-25-25-25s-25,11.193-25,25s11.193,25,25,25S60.5,78.307,60.5,64.5z
			 M12.773,64.5c0-12.552,10.174-22.729,22.729-22.729c12.553,0,22.727,10.176,22.727,22.729c0,12.552-10.174,22.729-22.727,22.729
			C22.947,87.229,12.773,77.052,12.773,64.5z"/>
	</g>
</g>
</svg>
